<svg width="327" height="314" viewBox="0 0 327 314" fill="none" xmlns="http://www.w3.org/2000/svg">
<path d="M150.867 156.779L153.265 149.022C153.748 147.459 154.815 146.142 156.242 145.343C157.67 144.544 159.351 144.325 160.936 144.73L170.11 147.076M111.443 66.2818C100.692 70.2061 90.8366 76.2472 82.4614 84.0477C76.9324 89.212 72.1646 95.1352 68.3008 101.64M111.443 66.2818C111.443 66.2818 138.166 3.16711 148.052 3.16711C148.961 3.16711 149.902 3.35245 150.875 3.72312C164.176 8.77924 182.741 46.8826 193.887 73.6227M111.443 66.2818C127.598 60.3645 145.029 58.7772 161.987 61.6774M68.3008 101.64C38.8328 117.451 2.17155 133.236 2.57117 143.227C2.59464 143.542 2.63524 143.855 2.6928 144.165M68.3008 101.64C63.8962 109.102 62.7929 124.384 63.5487 140.108C63.5487 140.108 43 125 2.6928 144.165M193.887 73.6227C202.989 79.2524 210.775 86.7717 216.718 95.6716C238.402 128.406 237.238 167.361 213.2 196.881M193.887 73.6227C184.126 67.6184 173.292 63.5647 161.987 61.6861C143.5 42 150.867 3.72312 150.867 3.72312M213.2 196.881C211.358 199.146 209.383 201.358 207.275 203.501C187.502 223.586 160.327 231.466 134.413 227.583M213.2 196.881L324 240.414M2.6928 144.165C5.03842 154.399 37.9554 173.103 72.575 187.22M72.575 187.22C76.3715 192.972 80.8803 198.445 86.0667 203.501C99.2491 216.412 116.166 224.838 134.413 227.583M72.575 187.22C68.5354 181.104 64.513 160.246 63.54 140.108M134.413 227.583C133.37 249.44 150.172 311 150.172 311M97 155C106 166.5 107.733 162.523 115.5 159.5C124.5 154 116.039 148.625 111 138C103.355 121.911 96.935 129.5 92.2175 133C87.5 136.5 90.8579 143.394 97 155ZM172.768 108.642C169.501 102.543 165.384 95.6629 171.421 91.4147C180.804 83.6481 181.951 90.5026 188.736 99.6766C196.398 110.049 200.055 112.499 191.107 119.163C183.115 125.114 177.737 117.92 172.768 108.642Z" stroke="#2F243A" stroke-width="5" stroke-linecap="round" stroke-linejoin="round"/>
</svg>
