<svg width="451" height="407" viewBox="0 0 451 407" fill="none" xmlns="http://www.w3.org/2000/svg">
<path d="M286.663 270.109L281.307 264.006C280.227 262.776 278.716 262.009 277.087 261.863C275.457 261.717 273.834 262.203 272.552 263.22L265.135 269.106M285.705 171.401C297.122 170.594 308.585 172.086 319.415 175.787C326.57 178.244 333.341 181.705 339.524 186.065M285.705 171.401C285.705 171.401 235.544 124.696 226.519 128.732C225.689 129.103 224.906 129.657 224.169 130.392C214.091 140.438 212.7 182.8 213.442 211.761M285.705 171.401C268.542 172.595 251.982 178.262 237.686 187.833M339.524 186.065C372.879 188.468 412.79 187.911 416.504 197.194C416.611 197.491 416.702 197.793 416.776 198.1M339.524 186.065C346.591 191.079 353.837 204.579 359.567 219.242C359.567 219.242 394.183 199.716 416.776 198.1M213.442 211.761C207.432 220.616 203.394 230.659 201.602 241.21C195.171 279.945 212.138 315.03 246.133 332.164M213.442 211.761C219.901 202.295 228.136 194.171 237.689 187.841C242.378 173.344 224.177 130.389 224.177 130.389M246.133 332.164C248.739 333.479 251.445 334.692 254.245 335.788C280.495 346.051 308.518 342.15 330.59 328.025M246.133 332.164L162.76 417.139M416.776 198.1C418.813 208.4 396.401 238.913 370.561 265.934M370.561 265.934C369.443 272.734 367.562 279.571 364.891 286.304C358.129 303.472 346.126 318.07 330.59 328.025M370.561 265.934C371.752 258.702 366.908 238.018 359.575 219.238M330.59 328.025C340.465 347.552 350.259 410.608 350.259 410.608M335.056 234.657C334.721 253.593 331.132 252.419 322.808 252.83C310.473 253.445 313.346 248.059 313.608 236.303C314.019 218.494 318.514 217.226 325.746 217.266C332.969 217.309 335.924 221.555 335.056 234.657ZM247.018 235.107C247.51 228.206 248.46 220.244 241.214 218.831C229.478 215.572 231.23 222.297 228.781 233.442C226.021 246.039 223.683 249.768 234.572 252.198C244.297 254.367 246.269 245.605 247.018 235.107Z" stroke="#FAC9B8" stroke-width="5" stroke-linecap="round" stroke-linejoin="round"/>
</svg>
